<svg width="28" height="26" viewBox="0 0 28 26" fill="none" xmlns="http://www.w3.org/2000/svg">
<path d="M17.5108 12.3329L14.7928 17.7688C14.4647 18.4305 13.5131 18.4086 13.2123 17.736L10.1006 10.829L8.45999 14.75H3.3139L13.2944 24.9493C13.6826 25.3485 14.3116 25.3485 14.6998 24.9493L24.6858 14.75H18.7194L17.5108 12.3329ZM25.9053 3.04145L25.7741 2.90474C22.9576 0.0281738 18.3475 0.0281738 15.5256 2.90474L13.9998 4.4688L12.4741 2.9102C9.65765 0.0281736 5.04202 0.0281736 2.22562 2.9102L2.09437 3.04145C-0.568914 5.76489 -0.683758 10.1016 1.69515 13H7.29515L9.25843 8.28599C9.55374 7.58052 10.5491 7.56411 10.8662 8.26411L14.0491 15.3352L16.7287 9.9813C17.0514 9.33599 17.9701 9.33599 18.2928 9.9813L19.8022 13H26.3045C28.6834 10.1016 28.5686 5.76489 25.9053 3.04145Z" fill="#CF2127"/>
</svg>
