<svg width="22" height="28" viewBox="0 0 22 28" fill="none" xmlns="http://www.w3.org/2000/svg">
<path d="M3.70014 0.665055C2.35014 1.12506 1.49014 2.46006 1.07015 4.72506C0.935146 5.45006 0.935146 8.35506 1.06515 9.20006C1.35514 11.0701 2.02514 13.8501 2.27014 14.2251C2.35514 14.3551 2.38014 14.3601 2.62514 14.3351C2.94514 14.3051 4.08014 14.0851 5.97014 13.7001C6.97013 13.4951 7.38513 13.3901 7.43013 13.3301C7.46513 13.2801 7.50513 12.9801 7.52013 12.6351C7.58513 11.4251 7.64513 11.1951 8.24013 9.79506C8.71513 8.67506 8.80513 8.37506 8.83513 7.77006C8.87513 7.02006 8.73013 5.38506 8.53013 4.35006C8.42513 3.80006 8.17013 3.04006 7.91013 2.50006C7.71013 2.09006 7.61513 1.96006 7.20513 1.55006C6.42013 0.770055 5.86014 0.550056 4.66514 0.550056C4.13514 0.550056 3.97014 0.570055 3.70014 0.665055Z" fill="#CF2127"/>
<path d="M16.6 6.78004C16.37 6.82504 15.825 7.01504 15.6 7.12504C15.035 7.41004 14.365 8.14004 14.045 8.82504C13.545 9.89004 13.3 11.105 13.2 13.025C13.125 14.445 13.18 14.73 13.79 16.105C14.29 17.23 14.405 17.695 14.475 18.845C14.515 19.425 14.55 19.57 14.68 19.62C14.89 19.7 18.75 20.49 19.36 20.575C19.755 20.635 19.785 20.575 20.245 18.75C20.54 17.59 20.71 16.79 20.845 15.975C21.055 14.7 21.075 14.43 21.07 13.15C21.07 12 21.055 11.8 20.93 11.085C20.525 8.73504 19.73 7.44004 18.375 6.92004C18.07 6.80504 17.94 6.78504 17.375 6.77004C17.02 6.76504 16.67 6.77004 16.6 6.78004Z" fill="#CF2127"/>
<path d="M7.34999 15.1851C6.62999 15.3001 4.36498 15.7601 3.44998 15.9801C2.81998 16.1301 2.67998 16.2451 2.72998 16.5401C2.88498 17.4751 3.26998 18.7401 3.62998 19.4901C3.86998 19.9901 3.95498 20.1101 4.31498 20.4701C4.76498 20.9151 5.07498 21.1001 5.57499 21.2001C6.12999 21.3151 7.12499 21.1701 7.65999 20.8951C7.96999 20.7351 8.32499 20.3751 8.45499 20.0851C8.56999 19.8401 8.57499 19.7701 8.56999 18.8501C8.56999 17.9951 8.54999 17.7951 8.43499 17.2301C8.19999 16.1201 7.93499 15.2751 7.79999 15.2001C7.70499 15.1501 7.58499 15.1451 7.34999 15.1851Z" fill="#CF2127"/>
<path d="M14.1851 21.44C14.0601 21.58 13.9701 21.83 13.7801 22.58C13.4851 23.75 13.3851 24.4 13.3801 25.15C13.3751 25.945 13.4451 26.245 13.7351 26.62C13.9801 26.94 14.3251 27.175 14.7401 27.3C15.0001 27.38 15.2301 27.405 15.8501 27.415L16.6301 27.425L17.0051 27.24C17.8751 26.81 18.4301 25.945 18.9051 24.29C19.2201 23.18 19.3351 22.46 19.2051 22.38C19.1101 22.32 14.5401 21.35 14.3551 21.35C14.3051 21.35 14.2301 21.39 14.1851 21.44Z" fill="#CF2127"/>
</svg>
