<svg width="26" height="26" viewBox="0 0 26 26" fill="none" xmlns="http://www.w3.org/2000/svg">
<path d="M3.8502 0.749983C3.8502 0.774982 3.7602 0.799982 3.6502 0.799982C3.5402 0.799982 3.4502 0.819983 3.4502 0.849983C3.4502 0.874983 3.4052 0.899982 3.3502 0.899982C3.2952 0.899982 3.2502 0.919983 3.2502 0.944983C3.2502 0.969982 3.1502 1.00498 3.0252 1.01998C2.9002 1.03998 2.8002 1.07498 2.8002 1.10498C2.8002 1.12998 2.7652 1.14998 2.7252 1.14998C2.6852 1.14998 2.6502 1.16998 2.6502 1.19998C2.6502 1.22498 2.6152 1.24998 2.5702 1.24998C2.5252 1.24998 2.4252 1.31498 2.3502 1.39998C2.2752 1.47998 2.1852 1.54998 2.1602 1.54998C2.0902 1.54998 1.6002 2.02998 1.6002 2.09498C1.6002 2.12498 1.5452 2.19998 1.4752 2.26998C1.4052 2.33998 1.3502 2.42998 1.3502 2.47498C1.3502 2.51498 1.3302 2.54998 1.3002 2.54998C1.2752 2.54998 1.2502 2.58498 1.2502 2.62498C1.2502 2.66498 1.2302 2.69998 1.2002 2.69998C1.1752 2.69998 1.1502 2.74498 1.1502 2.79998C1.1502 2.85498 1.1302 2.89998 1.1052 2.89998C1.0802 2.89998 1.0452 2.97998 1.0302 3.07498C1.0102 3.16998 0.975195 3.24998 0.950195 3.24998C0.920195 3.24998 0.900195 3.33998 0.900195 3.44998C0.900195 3.55998 0.880195 3.64998 0.850195 3.64998C0.825195 3.64998 0.800195 3.70498 0.800195 3.77498C0.800195 3.84498 0.780195 3.89998 0.750195 3.89998C0.715195 3.89998 0.700195 6.93999 0.700195 12.925C0.700195 18.91 0.715195 21.95 0.750195 21.95C0.780195 21.95 0.800195 22.03 0.800195 22.125C0.800195 22.22 0.825195 22.3 0.850195 22.3C0.880195 22.3 0.900195 22.39 0.900195 22.5C0.900195 22.61 0.920195 22.7 0.950195 22.7C0.975195 22.7 1.0102 22.78 1.0302 22.875C1.0452 22.97 1.0802 23.05 1.1052 23.05C1.1302 23.05 1.1502 23.095 1.1502 23.15C1.1502 23.205 1.1752 23.25 1.2002 23.25C1.2302 23.25 1.2502 23.285 1.2502 23.325C1.2502 23.365 1.2752 23.4 1.3002 23.4C1.3302 23.4 1.3502 23.435 1.3502 23.475C1.3502 23.575 2.3752 24.6 2.4752 24.6C2.5152 24.6 2.5502 24.62 2.5502 24.65C2.5502 24.675 2.5752 24.7 2.6052 24.7C2.6402 24.7 2.7002 24.74 2.7452 24.79C2.7902 24.845 2.9152 24.9 3.0252 24.915C3.1352 24.935 3.2302 24.97 3.2402 25C3.2502 25.025 3.3252 25.05 3.4052 25.05C3.4852 25.05 3.5502 25.07 3.5502 25.1C3.5502 25.125 3.6202 25.15 3.7002 25.15C3.7852 25.15 3.8502 25.17 3.8502 25.2C3.8502 25.235 6.9252 25.25 12.9752 25.25C19.0252 25.25 22.1002 25.235 22.1002 25.2C22.1002 25.17 22.1702 25.15 22.2502 25.15C22.3352 25.15 22.4002 25.125 22.4002 25.1C22.4002 25.07 22.4802 25.05 22.5752 25.05C22.6702 25.05 22.7502 25.03 22.7502 25.005C22.7502 24.98 22.8402 24.945 22.9502 24.925C23.0602 24.905 23.1502 24.87 23.1502 24.845C23.1502 24.82 23.1852 24.8 23.2252 24.8C23.2652 24.8 23.3002 24.775 23.3002 24.75C23.3002 24.72 23.3402 24.7 23.3902 24.7C23.4402 24.7 23.5102 24.655 23.5502 24.6C23.5902 24.545 23.6502 24.5 23.6852 24.5C23.7702 24.5 24.5002 23.77 24.5002 23.685C24.5002 23.65 24.5452 23.59 24.6002 23.55C24.6552 23.51 24.7002 23.44 24.7002 23.39C24.7002 23.34 24.7252 23.3 24.7502 23.3C24.7802 23.3 24.8002 23.265 24.8002 23.225C24.8002 23.185 24.8202 23.15 24.8452 23.15C24.8702 23.15 24.9052 23.06 24.9252 22.95C24.9452 22.84 24.9802 22.75 25.0052 22.75C25.0302 22.75 25.0502 22.695 25.0502 22.625C25.0502 22.555 25.0752 22.5 25.1002 22.5C25.1302 22.5 25.1502 22.41 25.1502 22.3C25.1502 22.19 25.1752 22.1 25.2002 22.1C25.2352 22.1 25.2502 19.025 25.2502 12.975C25.2502 6.92499 25.2352 3.84999 25.2002 3.84999C25.1752 3.84999 25.1502 3.73499 25.1502 3.59999C25.1502 3.45998 25.1302 3.34999 25.1002 3.34999C25.0752 3.34999 25.0502 3.31498 25.0502 3.27498C25.0502 3.23498 25.0302 3.19998 25.0052 3.19998C24.9802 3.19998 24.9452 3.10998 24.9252 2.99998C24.9052 2.88998 24.8702 2.79998 24.8452 2.79998C24.8202 2.79998 24.8002 2.76498 24.8002 2.72498C24.8002 2.68498 24.7802 2.64998 24.7502 2.64998C24.7252 2.64998 24.7002 2.60998 24.7002 2.55998C24.7002 2.50998 24.6552 2.43998 24.6002 2.39998C24.5452 2.35998 24.5002 2.29998 24.5002 2.26498C24.5002 2.17498 23.6652 1.34998 23.5752 1.34998C23.5352 1.34998 23.5002 1.32498 23.5002 1.29998C23.5002 1.26998 23.4552 1.24998 23.4002 1.24998C23.3452 1.24998 23.3002 1.22498 23.3002 1.19998C23.3002 1.16998 23.2652 1.14998 23.2252 1.14998C23.1852 1.14998 23.1502 1.12998 23.1502 1.10498C23.1502 1.07998 23.0602 1.04498 22.9502 1.02498C22.8402 1.00498 22.7502 0.969982 22.7502 0.944983C22.7502 0.919983 22.6952 0.899982 22.6252 0.899982C22.5552 0.899982 22.5002 0.874983 22.5002 0.849983C22.5002 0.819983 22.4352 0.799982 22.3502 0.799982C22.2702 0.799982 22.2002 0.774982 22.2002 0.749983C22.2002 0.714983 19.1102 0.699982 13.0252 0.699982C6.9402 0.699982 3.8502 0.714983 3.8502 0.749983ZM15.9202 4.98998C15.8802 5.00998 15.8502 5.32998 15.8252 5.85999C15.8052 6.32499 15.7702 6.69999 15.7452 6.69999C15.7202 6.69999 15.7002 6.83499 15.7002 6.99999C15.7002 7.16499 15.6802 7.29999 15.6502 7.29999C15.6202 7.29999 15.6002 7.45999 15.6002 7.67499C15.6002 7.88999 15.5802 8.04999 15.5502 8.04999C15.5202 8.04999 15.5002 8.20999 15.5002 8.42499C15.5002 8.63999 15.4802 8.79999 15.4502 8.79999C15.4202 8.79999 15.4002 8.95999 15.4002 9.17499C15.4002 9.37999 15.3802 9.54999 15.3552 9.54999C15.3302 9.54999 15.2952 9.87499 15.2752 10.275C15.2552 10.675 15.2202 11 15.1952 11C15.1702 11 15.1502 11.17 15.1502 11.375C15.1502 11.59 15.1302 11.75 15.1002 11.75C15.0702 11.75 15.0502 11.915 15.0502 12.15C15.0502 12.385 15.0302 12.55 15.0002 12.55C14.9702 12.55 14.9502 12.69 14.9502 12.875C14.9502 13.06 14.9302 13.2 14.9002 13.2C14.8702 13.2 14.8502 13.36 14.8502 13.575C14.8502 13.78 14.8302 13.95 14.8052 13.95C14.7852 13.95 14.7502 14.25 14.7302 14.61C14.7102 14.975 14.6702 15.28 14.6452 15.29C14.6202 15.3 14.6002 15.5 14.6002 15.73V16.15H12.9752H11.3502V15.875C11.3502 15.725 11.3302 15.6 11.3052 15.6C11.2802 15.6 11.2452 15.25 11.2252 14.825C11.2052 14.4 11.1702 14.05 11.1452 14.05C11.1202 14.05 11.1002 13.88 11.1002 13.675C11.1002 13.46 11.0802 13.3 11.0502 13.3C11.0202 13.3 11.0002 13.125 11.0002 12.875C11.0002 12.625 10.9802 12.45 10.9502 12.45C10.9202 12.45 10.9002 12.315 10.9002 12.15C10.9002 11.985 10.8802 11.85 10.8502 11.85C10.8202 11.85 10.8002 11.66 10.8002 11.38C10.8002 11.12 10.7802 10.9 10.7552 10.89C10.7252 10.88 10.6902 10.53 10.6702 10.11C10.6502 9.69499 10.6152 9.34999 10.5952 9.34999C10.5702 9.34999 10.5502 9.17999 10.5502 8.97499C10.5502 8.75999 10.5302 8.59999 10.5002 8.59999C10.4702 8.59999 10.4502 8.43999 10.4502 8.22499C10.4502 8.00999 10.4302 7.84999 10.4002 7.84999C10.3702 7.84999 10.3502 7.68499 10.3502 7.44999C10.3502 7.21499 10.3302 7.04999 10.3002 7.04999C10.2702 7.04999 10.2502 6.87499 10.2502 6.62999C10.2502 6.39999 10.2302 6.19999 10.2052 6.18999C10.1852 6.17999 10.1452 5.89999 10.1252 5.55999L10.0902 4.94999H13.0352C14.6502 4.94999 15.9502 4.96999 15.9202 4.98998ZM15.4002 19.6V21.85H12.9752H10.5502V19.6V17.35H12.9752H15.4002V19.6Z" fill="#CF2127"/>
</svg>
