<svg width="18" height="20" viewBox="0 0 18 20" fill="none" xmlns="http://www.w3.org/2000/svg">
<path d="M1.85003 0.280018C1.10003 0.480017 0.47503 1.12502 0.23003 1.94502C0.16003 2.19002 0.15003 2.98502 0.15003 9.97502C0.15003 18.44 0.13503 17.925 0.43003 18.505C0.59003 18.825 0.98503 19.245 1.30503 19.435C1.85503 19.765 1.52003 19.75 8.47503 19.75C15.43 19.75 15.095 19.765 15.645 19.435C15.965 19.245 16.36 18.825 16.525 18.505C16.775 18.01 16.82 17.735 16.825 16.79V15.905L16.98 15.875C17.23 15.83 17.525 15.585 17.655 15.315C17.77 15.08 17.775 15.045 17.775 13.725C17.775 12.405 17.77 12.37 17.655 12.135C17.525 11.865 17.23 11.62 16.98 11.575L16.825 11.545V9.97002V8.40002H16.96C17.155 8.40002 17.355 8.31502 17.515 8.16002C17.79 7.90002 17.8 7.85002 17.8 6.59502C17.8 5.45002 17.8 5.43002 17.675 5.22002C17.54 4.99002 17.225 4.80002 16.97 4.80002H16.825V3.51002C16.825 2.38502 16.815 2.19002 16.73 1.95002C16.43 1.07002 15.84 0.475018 15.075 0.275017C14.64 0.165016 2.27503 0.165016 1.85003 0.280018ZM14.5 10.15V16.9H8.50003H2.50003V10.15V3.40002H8.50003H14.5V10.15Z" fill="#CF2127"/>
</svg>
