<svg width="39" height="40" viewBox="0 0 39 40" fill="none" xmlns="http://www.w3.org/2000/svg">
<path d="M10.3397 16.9922L4.33246 7.8203C8.0752 3.1953 13.6893 0.648424 19.4292 0.624987C22.7552 0.601549 26.152 1.4453 29.2421 3.21874C32.6546 5.18749 35.2494 8.01561 36.9006 11.2656L20.7581 10.4219C16.1897 10.1562 11.8415 12.7109 10.3397 16.9922ZM12.9266 20C12.9266 23.6094 15.8673 26.5312 19.5 26.5312C23.1327 26.5312 26.0734 23.6094 26.0734 20C26.0734 16.3906 23.1327 13.4687 19.5 13.4687C15.8673 13.4687 12.9266 16.3828 12.9266 20ZM37.6869 13.0312L26.7024 13.5937C29.6825 17.0547 29.7296 22.0469 27.2214 25.875L18.4071 39.3437C22.0633 39.539 25.8296 38.7422 29.2421 36.7734C37.6869 31.9297 41.1073 21.7734 37.6869 13.0312ZM10.5127 23.7187L3.17661 9.3828C1.17157 12.4297 0 16.0859 0 20C0 29.6875 7.13952 37.7109 16.4728 39.1328L21.4815 29.3828C16.9524 30.2265 12.5806 27.7578 10.5127 23.7187Z" fill="white"/>
</svg>
