<svg width="35" height="36" viewBox="0 0 35 36" fill="none" xmlns="http://www.w3.org/2000/svg">
<path d="M17.5 13.8328C16.6759 13.8331 15.8703 14.0778 15.1853 14.5359C14.5002 14.994 13.9663 15.6449 13.6511 16.4064C13.336 17.1679 13.2537 18.0057 13.4146 18.8139C13.5756 19.6222 13.9726 20.3646 14.5555 20.9472C15.1383 21.5298 15.8808 21.9266 16.6892 22.0872C17.4975 22.2479 18.3353 22.1653 19.0966 21.8498C19.858 21.5344 20.5087 21.0003 20.9666 20.315C21.4244 19.6297 21.6687 18.8241 21.6687 18C21.6679 16.8948 21.2284 15.8351 20.4467 15.0537C19.6651 14.2724 18.6052 13.8332 17.5 13.8328ZM27.243 10.6297C27.0308 10.0921 26.7105 9.60377 26.3018 9.19508C25.8931 8.7864 25.4048 8.46605 24.8672 8.25391C23.2266 7.60625 19.3203 7.75156 17.5 7.75156C15.6797 7.75156 11.7773 7.60078 10.132 8.25391C9.59441 8.46605 9.10611 8.7864 8.69743 9.19508C8.28874 9.60377 7.96839 10.0921 7.75625 10.6297C7.10938 12.2703 7.25391 16.1805 7.25391 17.9992C7.25391 19.818 7.10938 23.7234 7.75938 25.3695C7.97152 25.9072 8.29187 26.3955 8.70055 26.8041C9.10923 27.2128 9.59753 27.5332 10.1352 27.7453C11.7758 28.393 15.682 28.2477 17.5031 28.2477C19.3242 28.2477 23.225 28.3984 24.8703 27.7453C25.4079 27.5332 25.8962 27.2128 26.3049 26.8041C26.7136 26.3955 27.034 25.9072 27.2461 25.3695C27.8984 23.7289 27.7484 19.8188 27.7484 18C27.7484 16.1812 27.8984 12.2766 27.2461 10.6305L27.243 10.6297ZM17.5 24.4062C16.233 24.4062 14.9944 24.0305 13.9409 23.3266C12.8874 22.6227 12.0663 21.6222 11.5814 20.4516C11.0965 19.281 10.9697 17.9929 11.2168 16.7502C11.464 15.5075 12.0742 14.366 12.9701 13.4701C13.866 12.5742 15.0075 11.964 16.2502 11.7168C17.4929 11.4697 18.781 11.5965 19.9516 12.0814C21.1222 12.5663 22.1227 13.3874 22.8266 14.4409C23.5305 15.4944 23.9062 16.733 23.9062 18C23.9073 18.8416 23.7423 19.6751 23.4207 20.4528C23.0991 21.2305 22.6273 21.9371 22.0322 22.5322C21.4371 23.1273 20.7305 23.5991 19.9528 23.9207C19.1751 24.2423 18.3416 24.4073 17.5 24.4062ZM24.1703 12.8203C23.8745 12.8205 23.5854 12.7329 23.3393 12.5687C23.0933 12.4045 22.9016 12.171 22.7883 11.8978C22.675 11.6246 22.6452 11.3239 22.7029 11.0338C22.7605 10.7436 22.9028 10.4771 23.1119 10.2679C23.321 10.0587 23.5874 9.91624 23.8775 9.85848C24.1676 9.80072 24.4683 9.83028 24.7416 9.94344C25.0149 10.0566 25.2484 10.2482 25.4128 10.4942C25.5771 10.7401 25.6648 11.0292 25.6648 11.325C25.6657 11.5214 25.6277 11.7161 25.5531 11.8978C25.4786 12.0795 25.3688 12.2447 25.2303 12.3839C25.0917 12.5231 24.927 12.6336 24.7457 12.709C24.5643 12.7845 24.3699 12.8233 24.1734 12.8234L24.1703 12.8203ZM31.25 0.5H3.75C2.75544 0.5 1.80161 0.895088 1.09835 1.59835C0.395088 2.30161 0 3.25544 0 4.25L0 31.75C0 32.7446 0.395088 33.6984 1.09835 34.4016C1.80161 35.1049 2.75544 35.5 3.75 35.5H31.25C32.2446 35.5 33.1984 35.1049 33.9016 34.4016C34.6049 33.6984 35 32.7446 35 31.75V4.25C35 3.25544 34.6049 2.30161 33.9016 1.59835C33.1984 0.895088 32.2446 0.5 31.25 0.5ZM29.9125 23.1562C29.8117 25.1586 29.3547 26.9328 27.893 28.3906C26.4312 29.8484 24.6586 30.3148 22.6586 30.4102C20.5953 30.5266 14.4094 30.5266 12.3461 30.4102C10.3438 30.3094 8.57578 29.8516 7.11172 28.3906C5.64766 26.9297 5.1875 25.1547 5.09219 23.1562C4.97578 21.0922 4.97578 14.9055 5.09219 12.8438C5.19297 10.8414 5.64453 9.06719 7.11172 7.60938C8.57891 6.15156 10.3516 5.69063 12.3461 5.59531C14.4094 5.47891 20.5953 5.47891 22.6586 5.59531C24.6609 5.69609 26.4344 6.15391 27.893 7.61484C29.3516 9.07578 29.8172 10.8508 29.9125 12.8531C30.0289 14.9094 30.0289 21.0906 29.9125 23.1562Z" fill="white"/>
</svg>
