<svg width="573" height="488" viewBox="0 0 573 488" fill="none" xmlns="http://www.w3.org/2000/svg">
<g clip-path="url(#clip0)">
<path d="M323.239 6.28049L165.707 103.279C165.707 103.279 165.707 303.338 323.239 412.461C480.772 303.338 480.772 103.279 480.772 103.279L323.239 6.28049Z" fill="#CF2127"/>
<path opacity="0.04" d="M324.18 6.28049L321.487 7.93858V410.569C322.381 411.201 323.275 411.834 324.18 412.461C481.712 303.338 481.712 103.279 481.712 103.279L324.18 6.28049Z" fill="#FFA2A5"/>
<g opacity="0.7">
<path opacity="0.7" d="M285.102 202.837L314.799 230.075L351.613 176.937L366.462 189.318L314.799 254.838L272.728 207.79L285.102 202.837Z" fill="url(#paint0_linear)"/>
</g>
<path d="M292.111 204.474L316.201 226.569L350.328 176.352L362.374 186.396L316.201 246.656L282.073 208.491L292.111 204.474Z" fill="white"/>
<path opacity="0.5" d="M167.805 28.0271C167.322 27.8167 166.934 27.436 166.713 26.9574C166.493 26.4788 166.456 25.9358 166.609 25.4317C166.634 25.3544 166.65 25.2745 166.656 25.1935C166.67 24.9625 166.609 24.7332 166.483 24.5395C166.357 24.3457 166.171 24.1978 165.954 24.1178C165.737 24.0377 165.5 24.0297 165.278 24.0949C165.057 24.1601 164.862 24.295 164.722 24.4798C164.675 24.5453 164.635 24.6163 164.603 24.6912C164.393 25.1744 164.012 25.5633 163.534 25.784C163.056 26.0046 162.513 26.0416 162.009 25.8879C161.932 25.863 161.852 25.8473 161.771 25.8412C161.54 25.8271 161.311 25.8878 161.118 26.0143C160.924 26.1407 160.776 26.3263 160.696 26.5433C160.616 26.7604 160.608 26.9975 160.673 27.2195C160.738 27.4415 160.873 27.6366 161.058 27.7759C161.123 27.8238 161.194 27.8638 161.269 27.8951C161.752 28.1055 162.141 28.4862 162.361 28.9648C162.582 29.4434 162.619 29.9864 162.465 30.4905C162.44 30.5678 162.425 30.6477 162.419 30.7287C162.405 30.9597 162.465 31.189 162.592 31.3827C162.718 31.5765 162.903 31.7244 163.12 31.8044C163.337 31.8845 163.574 31.8926 163.796 31.8273C164.018 31.7621 164.213 31.6272 164.352 31.4424C164.4 31.3769 164.44 31.3059 164.471 31.231C164.682 30.7478 165.062 30.3589 165.54 30.1382C166.019 29.9176 166.561 29.8806 167.065 30.0343C167.142 30.0592 167.222 30.0749 167.303 30.081C167.534 30.0951 167.763 30.0344 167.957 29.9079C168.151 29.7815 168.298 29.5959 168.378 29.3789C168.458 29.1618 168.466 28.9247 168.401 28.7027C168.336 28.4807 168.201 28.2856 168.017 28.1463C167.951 28.0984 167.88 28.0584 167.805 28.0271Z" fill="#CF2127"/>
<path opacity="0.5" d="M82.527 217.967C82.0441 217.757 81.6554 217.376 81.4349 216.897C81.2144 216.419 81.1774 215.876 81.3311 215.372C81.3559 215.295 81.3716 215.215 81.3777 215.134C81.3918 214.903 81.3311 214.673 81.2047 214.48C81.0783 214.286 80.8929 214.138 80.676 214.058C80.459 213.978 80.2221 213.97 80.0002 214.035C79.7783 214.1 79.5833 214.235 79.4441 214.42C79.3963 214.485 79.3563 214.556 79.325 214.631C79.1147 215.115 78.7342 215.503 78.2559 215.724C77.7776 215.945 77.2348 215.982 76.7311 215.828C76.6538 215.803 76.5739 215.787 76.493 215.781C76.2622 215.767 76.033 215.828 75.8394 215.954C75.6457 216.081 75.4979 216.266 75.4179 216.483C75.3379 216.701 75.3298 216.938 75.395 217.16C75.4602 217.382 75.5951 217.577 75.7797 217.716C75.8452 217.764 75.9162 217.804 75.9911 217.835C76.4739 218.046 76.8627 218.426 77.0832 218.905C77.3037 219.384 77.3406 219.927 77.187 220.431C77.1621 220.508 77.1464 220.588 77.1403 220.669C77.1263 220.9 77.1869 221.129 77.3133 221.323C77.4397 221.517 77.6251 221.664 77.8421 221.745C78.059 221.825 78.296 221.833 78.5179 221.767C78.7397 221.702 78.9347 221.567 79.0739 221.383C79.1218 221.317 79.1618 221.246 79.193 221.171C79.4033 220.688 79.7839 220.299 80.2622 220.078C80.7405 219.858 81.2832 219.821 81.787 219.974C81.8642 219.999 81.9441 220.015 82.025 220.021C82.2559 220.035 82.4851 219.974 82.6787 219.848C82.8723 219.722 83.0201 219.536 83.1002 219.319C83.1802 219.102 83.1882 218.865 83.123 218.643C83.0579 218.421 82.923 218.226 82.7383 218.086C82.6728 218.039 82.6019 217.999 82.527 217.967Z" fill="#CF2127"/>
<path opacity="0.5" d="M508.398 151.952C510.334 151.952 511.903 150.382 511.903 148.446C511.903 146.509 510.334 144.939 508.398 144.939C506.463 144.939 504.894 146.509 504.894 148.446C504.894 150.382 506.463 151.952 508.398 151.952Z" fill="#CF2127"/>
<path opacity="0.5" d="M142.169 402.673C144.104 402.673 145.673 401.103 145.673 399.166C145.673 397.23 144.104 395.66 142.169 395.66C140.233 395.66 138.664 397.23 138.664 399.166C138.664 401.103 140.233 402.673 142.169 402.673Z" fill="#CF2127"/>
<path opacity="0.5" d="M567.976 286.956C569.912 286.956 571.481 285.386 571.481 283.449C571.481 281.512 569.912 279.943 567.976 279.943C566.041 279.943 564.472 281.512 564.472 283.449C564.472 285.386 566.041 286.956 567.976 286.956Z" fill="#CF2127"/>
<path opacity="0.5" d="M482.634 44.9757C482.151 44.7652 481.762 44.3845 481.542 43.9059C481.321 43.4273 481.284 42.8843 481.438 42.3802C481.463 42.3029 481.479 42.223 481.485 42.142C481.499 41.9111 481.438 41.6817 481.312 41.488C481.185 41.2942 481 41.1464 480.783 41.0663C480.566 40.9862 480.329 40.9782 480.107 41.0434C479.885 41.1086 479.69 41.2436 479.551 41.4283C479.503 41.4939 479.463 41.5648 479.432 41.6398C479.222 42.1229 478.841 42.5119 478.363 42.7325C477.885 42.9532 477.342 42.9901 476.838 42.8364C476.761 42.8115 476.681 42.7958 476.6 42.7897C476.369 42.7756 476.14 42.8363 475.946 42.9628C475.753 43.0893 475.605 43.2748 475.525 43.4919C475.445 43.7089 475.437 43.946 475.502 44.168C475.567 44.39 475.702 44.5851 475.887 44.7244C475.952 44.7723 476.023 44.8123 476.098 44.8436C476.581 45.054 476.97 45.4348 477.19 45.9133C477.411 46.3919 477.448 46.935 477.294 47.439C477.269 47.5163 477.253 47.5963 477.247 47.6772C477.233 47.9082 477.294 48.1375 477.42 48.3313C477.547 48.525 477.732 48.6729 477.949 48.753C478.166 48.833 478.403 48.8411 478.625 48.7759C478.847 48.7107 479.042 48.5757 479.181 48.3909C479.229 48.3254 479.269 48.2544 479.3 48.1795C479.51 47.6963 479.891 47.3074 480.369 47.0867C480.848 46.8661 481.39 46.8291 481.894 46.9829C481.971 47.0077 482.051 47.0234 482.132 47.0295C482.363 47.0436 482.592 46.9829 482.786 46.8564C482.979 46.73 483.127 46.5445 483.207 46.3274C483.287 46.1103 483.295 45.8732 483.23 45.6512C483.165 45.4292 483.03 45.2341 482.845 45.0948C482.78 45.0469 482.709 45.0069 482.634 44.9757Z" fill="#CF2127"/>
<path opacity="0.5" d="M541.044 411.998C540.561 411.788 540.172 411.407 539.952 410.929C539.731 410.45 539.694 409.907 539.848 409.403C539.873 409.326 539.888 409.246 539.895 409.165C539.909 408.934 539.848 408.704 539.722 408.511C539.595 408.317 539.41 408.169 539.193 408.089C538.976 408.009 538.739 408.001 538.517 408.066C538.295 408.131 538.1 408.266 537.961 408.451C537.913 408.517 537.873 408.588 537.842 408.663C537.632 409.146 537.251 409.535 536.773 409.755C536.294 409.976 535.752 410.013 535.248 409.859C535.171 409.834 535.091 409.819 535.01 409.812C534.779 409.798 534.55 409.859 534.356 409.986C534.162 410.112 534.015 410.298 533.935 410.515C533.855 410.732 533.847 410.969 533.912 411.191C533.977 411.413 534.112 411.608 534.296 411.747C534.362 411.795 534.433 411.835 534.508 411.866C534.991 412.077 535.379 412.458 535.6 412.936C535.82 413.415 535.857 413.958 535.704 414.462C535.679 414.539 535.663 414.619 535.657 414.7C535.643 414.931 535.704 415.16 535.83 415.354C535.957 415.548 536.142 415.696 536.359 415.776C536.576 415.856 536.813 415.864 537.035 415.799C537.257 415.733 537.451 415.598 537.591 415.414C537.639 415.348 537.679 415.277 537.71 415.202C537.92 414.719 538.301 414.33 538.779 414.109C539.257 413.889 539.8 413.852 540.304 414.006C540.381 414.03 540.461 414.046 540.542 414.052C540.773 414.066 541.002 414.006 541.196 413.879C541.389 413.753 541.537 413.567 541.617 413.35C541.697 413.133 541.705 412.896 541.64 412.674C541.575 412.452 541.44 412.257 541.255 412.118C541.19 412.07 541.119 412.03 541.044 411.998Z" fill="#CF2127"/>
<path opacity="0.5" d="M78.4383 106.925C77.9554 106.715 77.5667 106.334 77.3462 105.856C77.1257 105.377 77.0887 104.834 77.2424 104.33C77.2673 104.253 77.2829 104.173 77.2891 104.092C77.3031 103.861 77.2425 103.631 77.1161 103.438C76.9897 103.244 76.8043 103.096 76.5873 103.016C76.3703 102.936 76.1334 102.928 75.9115 102.993C75.6896 103.058 75.4947 103.193 75.3555 103.378C75.3076 103.444 75.2676 103.515 75.2364 103.589C75.026 104.073 74.6455 104.462 74.1672 104.682C73.6889 104.903 73.1462 104.94 72.6424 104.786C72.5651 104.761 72.4852 104.746 72.4043 104.739C72.1735 104.725 71.9443 104.786 71.7507 104.912C71.557 105.039 71.4092 105.224 71.3292 105.442C71.2492 105.659 71.2411 105.896 71.3063 106.118C71.3715 106.34 71.5064 106.535 71.691 106.674C71.7566 106.722 71.8275 106.762 71.9024 106.793C72.3853 107.004 72.774 107.384 72.9945 107.863C73.215 108.342 73.252 108.885 73.0983 109.389C73.0734 109.466 73.0578 109.546 73.0516 109.627C73.0376 109.858 73.0982 110.087 73.2246 110.281C73.351 110.475 73.5364 110.623 73.7534 110.703C73.9703 110.783 74.2073 110.791 74.4292 110.726C74.6511 110.66 74.846 110.525 74.9852 110.341C75.0331 110.275 75.0731 110.204 75.1043 110.129C75.3147 109.646 75.6952 109.257 76.1735 109.036C76.6518 108.816 77.1945 108.779 77.6983 108.933C77.7756 108.957 77.8555 108.973 77.9364 108.979C78.1672 108.993 78.3964 108.933 78.59 108.806C78.7837 108.68 78.9314 108.494 79.0115 108.277C79.0915 108.06 79.0995 107.823 79.0344 107.601C78.9692 107.379 78.8343 107.184 78.6497 107.045C78.5841 106.997 78.5132 106.957 78.4383 106.925Z" fill="#CF2127"/>
<path opacity="0.5" d="M117.637 169.485C119.572 169.485 121.141 167.915 121.141 165.978C121.141 164.042 119.572 162.472 117.637 162.472C115.701 162.472 114.132 164.042 114.132 165.978C114.132 167.915 115.701 169.485 117.637 169.485Z" fill="#CF2127"/>
<path opacity="0.5" d="M569.729 197.538C571.664 197.538 573.233 195.968 573.233 194.031C573.233 192.095 571.664 190.525 569.729 190.525C567.793 190.525 566.224 192.095 566.224 194.031C566.224 195.968 567.793 197.538 569.729 197.538Z" fill="#CF2127"/>
<g opacity="0.5">
<path opacity="0.5" d="M413.774 0H412.022V9.93533H413.774V0Z" fill="#CF2127"/>
<path opacity="0.5" d="M417.863 5.84431V4.09102L407.933 4.09102V5.84431L417.863 5.84431Z" fill="#CF2127"/>
</g>
<g opacity="0.5">
<path opacity="0.5" d="M420.2 389.231H418.447V399.166H420.2V389.231Z" fill="#CF2127"/>
<path opacity="0.5" d="M424.288 395.075V393.322H414.359V395.075H424.288Z" fill="#CF2127"/>
</g>
<g opacity="0.5">
<path opacity="0.5" d="M88.4319 410.271H86.6796V420.206H88.4319V410.271Z" fill="#CF2127"/>
<path opacity="0.5" d="M92.5206 416.115V414.362H82.591V416.115H92.5206Z" fill="#CF2127"/>
</g>
<g opacity="0.5">
<path opacity="0.5" d="M487.371 231.435H485.618V241.37H487.371V231.435Z" fill="#CF2127"/>
<path opacity="0.5" d="M491.459 237.279V235.526H481.53V237.279H491.459Z" fill="#CF2127"/>
</g>
<path opacity="0.5" d="M535.972 71.8955L539.735 75.3472L545.067 67.5018L546.949 69.071L539.735 78.4856L534.403 72.5232L535.972 71.8955Z" fill="#CF2127"/>
<path opacity="0.1" d="M120.144 483.302C148.623 483.302 171.709 479.591 171.709 475.014C171.709 470.437 148.623 466.727 120.144 466.727C91.6664 466.727 68.5803 470.437 68.5803 475.014C68.5803 479.591 91.6664 483.302 120.144 483.302Z" fill="#6C63FF"/>
<path d="M121.803 316.271H118.486V391.02H121.803V316.271Z" fill="#535461"/>
<path d="M142.656 390.792L142.445 394.158L142.153 398.91L142.031 400.891L141.739 405.648L141.61 407.629L141.318 412.381L137.971 466.423C137.828 468.749 136.804 470.933 135.108 472.529C133.412 474.125 131.17 475.014 128.842 475.014H111.447C109.119 475.014 106.879 474.125 105.183 472.529C103.488 470.932 102.465 468.748 102.324 466.423L98.9592 412.381L98.6672 407.629L98.5445 405.648L98.2583 400.879L98.1357 398.898L97.8436 394.147L97.6333 390.78C97.5935 390.134 97.6863 389.487 97.906 388.878C98.1258 388.269 98.4679 387.712 98.9111 387.24C99.3544 386.769 99.8895 386.393 100.483 386.137C101.077 385.88 101.718 385.748 102.365 385.748H137.93C138.578 385.748 139.219 385.88 139.813 386.138C140.408 386.395 140.943 386.772 141.386 387.245C141.829 387.717 142.17 388.276 142.389 388.886C142.607 389.497 142.698 390.145 142.656 390.792Z" fill="#3F3D56"/>
<path d="M142.445 394.158L142.153 398.91H98.1299L97.8378 394.158H142.445Z" fill="#9D9CB5"/>
<path d="M142.031 400.891L141.739 405.648H98.5504L98.2525 400.891H142.031Z" fill="#9D9CB5"/>
<path d="M141.61 407.629L141.318 412.381H98.9709L98.673 407.629H141.61Z" fill="#9D9CB5"/>
<path d="M92.7737 344.289C112.096 358.274 120.144 380.155 120.144 380.155C120.144 380.155 96.8565 379.355 77.5053 365.369C58.1542 351.384 50.1345 329.503 50.1345 329.503C50.1345 329.503 73.4459 330.303 92.7737 344.289Z" fill="#3AD29F"/>
<path d="M50.1637 329.503C50.1637 329.503 74.3337 342.945 82.0846 354.049C89.8356 365.153 120.144 380.161 120.144 380.161" stroke="#535461" stroke-width="2" stroke-miterlimit="10"/>
<path d="M105.244 316.137C115.758 323.734 120.145 335.657 120.145 335.657C120.145 335.657 107.47 335.224 96.95 327.609C86.4304 319.994 82.0555 308.089 82.0555 308.089C82.0555 308.089 94.7304 308.492 105.244 316.137Z" fill="#3AD29F"/>
<path d="M82.0555 308.06C82.0555 308.06 95.2094 315.365 99.4266 321.414C103.644 327.463 120.145 335.628 120.145 335.628" stroke="#535461" stroke-width="2" stroke-miterlimit="10"/>
<path d="M135.43 335.026C123.345 348.31 120.793 365.667 120.793 365.667C120.793 365.667 137.825 361.489 149.904 348.204C161.983 334.92 164.542 317.557 164.542 317.557C164.542 317.557 147.509 321.736 135.43 335.026Z" fill="#3AD29F"/>
<path d="M164.542 317.557C164.542 317.557 148.806 331.174 144.805 340.56C140.804 349.946 120.793 365.691 120.793 365.691" stroke="#535461" stroke-width="2" stroke-miterlimit="10"/>
<path opacity="0.1" d="M420.276 478.456C470.771 478.456 511.705 474.479 511.705 469.573C511.705 464.667 470.771 460.69 420.276 460.69C369.781 460.69 328.847 464.667 328.847 469.573C328.847 474.479 369.781 478.456 420.276 478.456Z" fill="#6C63FF"/>
<path d="M479.877 472.25C479.569 470.7 479.042 469.203 478.312 467.802L471.303 457.329H471.344C471.344 457.329 470.24 452.069 471.344 449.486C472.448 446.903 467.407 440.55 467.407 440.55C467.407 440.55 466.793 438.955 468.394 436.991C469.994 435.027 467.407 429.276 467.407 429.276C467.407 429.276 466.18 417.266 466.058 415.431C465.935 413.596 464.948 403.427 464.948 403.427L462.611 381.867L458.453 324.727L458.377 323.658C458.891 323.407 459.165 323.249 459.165 323.249L458.336 291.655L459.054 291.006C465.327 285.325 479.796 272.175 479.649 271.889C479.503 271.603 477.897 249.932 477.71 244.508C477.55 240.654 476.707 236.859 475.222 233.299C474.86 232.58 473.814 227.84 473.382 225.836C473.265 225.287 473.189 224.942 473.189 224.942C473.189 224.942 468.949 216.853 469.317 213.177C469.685 209.501 470.421 206.748 461.379 205.463C461.379 205.463 453.786 204.329 449.265 201.237C446.591 199.385 443.669 197.921 440.585 196.889C440.585 196.889 438.05 192.214 436.286 193.797C435.539 192.129 434.981 190.382 434.621 188.59L434.569 188.263C437.917 185.927 440.327 182.476 441.368 178.526C441.426 178.304 441.473 178.076 441.525 177.854C441.701 177.914 441.884 177.947 442.069 177.953C443.605 177.953 444.551 176.241 445.988 175.698C446.572 175.47 447.29 175.435 447.74 174.973C447.888 174.795 447.999 174.589 448.065 174.367C448.132 174.145 448.152 173.911 448.126 173.681C448.14 173.522 448.14 173.361 448.126 173.202C448.129 173.146 448.129 173.089 448.126 173.033V173.091C447.734 170.964 446.087 169.076 446.268 166.914C446.444 164.88 448.231 163.091 448.085 161.11C448.083 160.953 448.069 160.797 448.044 160.643V160.713C447.826 159.939 447.426 159.23 446.876 158.644C446.247 157.787 445.422 157.093 444.469 156.622C443.657 156.265 442.717 156.183 441.958 155.757C439.726 154.541 439.732 151.374 438.406 149.211C437.838 148.308 437.032 147.58 436.077 147.107C435.121 146.634 434.054 146.433 432.992 146.529C431.333 146.692 429.832 147.575 428.19 147.861C425.948 148.258 423.664 147.528 421.538 146.692C419.411 145.856 417.256 144.939 414.972 144.939C412.689 144.939 410.218 146.108 409.529 148.264C409.161 149.433 409.342 150.69 409.061 151.876C408.559 153.968 406.725 155.465 404.827 156.505C403.658 157.154 402.268 157.896 401.906 159.123C401.906 159.088 401.906 159.059 401.906 159.03C401.88 159.127 401.86 159.227 401.848 159.328C401.836 159.458 401.836 159.589 401.848 159.719C401.848 160.561 402.292 161.361 402.589 162.162C403.145 163.685 403.132 165.358 402.554 166.873C402.122 167.983 401.386 168.959 400.966 170.064C400.767 170.578 400.638 171.117 400.58 171.665V171.571C400.566 171.821 400.566 172.07 400.58 172.32C400.573 173.173 400.773 174.015 401.164 174.774C401.432 175.298 401.802 175.763 402.253 176.141C402.703 176.52 403.225 176.804 403.787 176.977C404.955 177.246 405.685 176.101 406.918 176.393C407.138 176.446 407.355 176.514 407.566 176.598C407.607 176.861 407.648 177.124 407.694 177.381C408.44 181.314 410.535 184.863 413.617 187.415C413.617 187.556 413.664 187.696 413.681 187.842C414.055 190.172 414.217 192.531 414.166 194.89C414.166 194.89 412.326 192.196 409.803 197.397C409.803 197.397 403.22 201.196 400.948 201.629C398.676 202.061 390.61 204.872 390.61 204.872C389.393 205.753 387.929 206.225 386.427 206.222C383.91 206.222 381.819 211.734 382.123 214.732C382.426 217.73 381.942 219.939 379.599 220.062C377.257 220.184 378.536 224.936 378.554 225.018L378.338 226.04C377.882 228.133 376.889 232.621 376.539 233.322C375.054 236.883 374.209 240.677 374.045 244.532C373.864 249.955 372.292 271.544 372.111 271.912C371.989 272.152 381.901 281.217 388.869 287.552L389.879 288.464L386.673 318.433C386.766 319.588 387.109 320.708 387.678 321.718C388.247 322.727 389.028 323.6 389.967 324.277C389.967 324.628 389.967 324.985 389.932 325.353C389.792 328.859 389.511 333.102 388.951 334.213C387.969 336.176 388.215 346.708 388.215 346.708C388.215 346.708 387.228 368.145 386.001 370.477C384.774 372.809 384.523 377.7 384.891 378.659C385.259 379.617 383.659 405.361 383.659 405.361L382.432 416.881C382.432 416.881 382.8 427.903 381.69 428.148C380.581 428.394 379.967 435.991 379.967 435.991C379.967 435.991 376.036 441.38 377.754 443.338C379.471 445.296 377.502 446.161 377.321 446.646C377.14 447.131 373.571 448.983 376.153 455.833C376.177 455.901 376.204 455.967 376.235 456.032C373.817 459.392 366.153 470.233 366.621 471.881C366.966 472.93 367.697 473.808 368.665 474.336C370.47 475.417 373.566 475.92 378.49 474.336C386.667 471.7 386.083 469.801 386.083 469.801C386.125 468.913 386.506 468.075 387.147 467.459C387.788 466.844 388.641 466.498 389.529 466.493C392.911 466.247 395.434 463.127 395.434 463.127L395.037 461.648L394.494 459.603C394.558 459.018 394.973 457.995 396.83 457.428C399.663 456.569 398.921 451.181 398.921 451.181C398.921 451.181 398.676 445.547 399.903 444.811C401.129 444.074 400.644 434.764 400.644 434.764C400.644 434.764 402 428.026 403.962 423.491C405.925 418.955 408.273 392.013 408.273 392.013C408.273 392.013 409.867 378.782 411.345 374.983C412.823 371.184 414.178 360.53 414.178 360.53C414.178 360.53 423.284 342.886 423.401 338.964C423.401 338.964 424.569 335.288 425.737 339.332C426.905 343.377 430.188 353.055 430.188 353.055L433.383 364.936L437.197 382.697L439.662 397.647C439.662 397.647 439.288 403.281 440.246 405.245C441.204 407.208 442.583 411.732 441.847 412.591C441.111 413.45 443.319 417.494 443.938 418.347C444.557 419.201 443.938 437.336 443.938 437.336C443.938 437.336 446.765 452.771 450.824 455.453C451.107 455.639 451.409 455.796 451.724 455.921C451.665 457.592 451.607 459.83 451.683 460.999C451.674 461.261 451.718 461.521 451.811 461.765C452.179 462.256 456.361 465.564 457.226 465.564C458.09 465.564 461.157 467.709 461.285 468.749C461.414 469.789 470.275 474.196 471.531 474.324C472.786 474.453 478.873 475.546 479.708 473.833C479.914 473.333 479.973 472.783 479.877 472.25ZM458.108 251.498L458.739 252.042C458.739 252.042 459.387 257.097 459.849 258.611C460.31 260.124 459.755 263.07 459.755 263.07C459.798 264.169 460.016 265.255 460.403 266.284C460.953 267.389 459.294 269.791 459.294 269.791H457.816L457.354 250.867L458.108 251.498ZM414.166 194.995V194.884C414.155 194.919 414.149 194.96 414.149 194.995H414.166ZM391.474 267.845C391.247 267.355 391.213 266.798 391.381 266.284C391.512 266.007 391.616 265.717 391.69 265.419C391.872 264.652 391.985 263.869 392.029 263.082C392.03 263.072 392.03 263.062 392.029 263.052C391.976 262.772 391.503 260.06 391.941 258.622C392.379 257.185 393.045 252.053 393.045 252.053L393.466 251.697L394.441 250.85C394.441 250.85 394.441 250.534 394.511 250.014C394.716 254.455 394.879 259.365 394.617 259.61C394.126 260.095 392.339 264.87 392.771 265.057C392.911 265.121 392.718 267.032 392.391 269.604C392.024 269.052 391.716 268.462 391.474 267.845Z" fill="url(#paint1_linear)"/>
<path d="M438.552 199.665V206.935L423.646 214.434C423.646 214.434 408.845 205.474 412.496 201.909C414.832 199.653 414.382 193.458 413.752 189.198C413.384 186.72 412.957 184.902 412.957 184.902C412.957 184.902 439.545 177.305 435.527 183.073C434.183 185.002 434.078 187.497 434.528 189.969C435.439 194.873 438.552 199.665 438.552 199.665Z" fill="#F9B293"/>
<path d="M397.718 270.761L395.796 294.442C395.796 294.442 392.917 291.83 389.19 288.428C382.28 282.122 372.468 273.105 372.584 272.865C372.765 272.497 374.337 251.013 374.506 245.613C374.666 241.78 375.5 238.005 376.971 234.462C377.321 233.761 378.309 229.296 378.723 227.209C378.863 226.561 378.951 226.14 378.951 226.14L382.175 224.842C382.175 224.842 395.609 239.839 395.609 240.114C395.609 240.388 394.692 251.907 394.692 251.907L393.74 252.737L393.326 253.094C393.326 253.094 392.683 258.126 392.228 259.634C391.772 261.141 392.263 263.76 392.315 264.04C392.272 264.828 392.161 265.61 391.982 266.378C391.906 266.673 391.802 266.961 391.673 267.237C391.508 267.749 391.541 268.303 391.766 268.792C392.026 269.469 392.363 270.114 392.771 270.714L397.718 270.761Z" fill="#232323"/>
<path d="M479.135 272.865C479.276 273.151 464.948 286.237 458.739 291.888L455.923 294.442L454.019 270.761H458.955C458.955 270.761 460.602 268.382 460.053 267.284C459.67 266.259 459.455 265.18 459.416 264.087C459.416 264.087 459.96 261.165 459.504 259.651C459.048 258.137 458.406 253.111 458.406 253.111L457.781 252.574L457.039 251.925C457.039 251.925 456.122 240.406 456.122 240.131C456.122 239.856 469.556 224.86 469.556 224.86L472.757 226.14C472.757 226.14 472.827 226.485 472.944 227.034C473.376 229.027 474.41 233.743 474.766 234.462C476.237 238.005 477.072 241.78 477.231 245.613C477.383 251.013 478.949 272.497 479.135 272.865Z" fill="#232323"/>
<path d="M479.194 473.874C478.335 475.581 472.307 474.459 471.063 474.365C469.819 474.272 461.034 469.848 460.912 468.813C460.789 467.779 457.746 465.646 456.893 465.646C456.04 465.646 451.899 462.349 451.531 461.864C451.438 461.622 451.396 461.364 451.408 461.104C451.28 459.1 451.531 453.939 451.531 453.939L469.2 454.915L477.786 467.837C478.51 469.231 479.033 470.721 479.34 472.261C479.444 472.802 479.393 473.361 479.194 473.874Z" fill="black"/>
<path opacity="0.1" d="M479.194 473.874C478.335 475.581 472.307 474.459 471.063 474.365C469.819 474.272 461.034 469.848 460.912 468.813C460.789 467.779 457.746 465.646 456.893 465.646C456.04 465.646 451.899 462.349 451.531 461.864C451.438 461.622 451.396 461.364 451.408 461.104C451.28 459.1 451.531 453.939 451.531 453.939L469.2 454.915L477.786 467.837C478.51 469.231 479.033 470.721 479.34 472.261C479.444 472.802 479.393 473.361 479.194 473.874Z" fill="black"/>
<path opacity="0.1" d="M479.194 473.874C478.335 475.581 472.307 474.459 471.063 474.365C469.819 474.272 461.034 469.848 460.912 468.813C460.789 467.779 457.746 465.646 456.893 465.646C456.04 465.646 451.899 462.349 451.531 461.864C451.438 461.622 451.396 461.364 451.408 461.105L457.133 464.728C457.133 464.728 460.789 467.066 461.764 468.451C462.74 469.836 470.427 472.717 471.063 472.776C471.536 472.822 476.583 471.852 479.34 472.261C479.444 472.802 479.393 473.361 479.194 473.874Z" fill="black"/>
<path d="M395.668 463.208C395.668 463.208 393.168 466.318 389.827 466.557C388.945 466.564 388.1 466.909 387.465 467.521C386.83 468.134 386.455 468.966 386.416 469.848C386.416 469.848 387 471.741 378.922 474.365C374.045 475.937 370.978 475.441 369.191 474.365C368.232 473.836 367.508 472.963 367.164 471.922C366.615 469.976 377.397 455.161 377.397 455.161L387.21 454.576L394.219 457.744L395.294 461.759L395.668 463.208Z" fill="black"/>
<path opacity="0.1" d="M395.668 463.208C395.668 463.208 393.168 466.318 389.827 466.557C388.945 466.564 388.1 466.909 387.465 467.521C386.83 468.134 386.455 468.966 386.416 469.848C386.416 469.848 387 471.741 378.922 474.365C374.045 475.937 370.978 475.441 369.191 474.365C368.232 473.836 367.508 472.963 367.164 471.922C366.615 469.976 377.397 455.161 377.397 455.161L387.21 454.576L394.219 457.744L395.294 461.759L395.668 463.208Z" fill="black"/>
<path opacity="0.1" d="M395.668 463.208C395.668 463.208 393.168 466.318 389.827 466.557C388.945 466.564 388.1 466.909 387.465 467.521C386.83 468.133 386.455 468.966 386.416 469.848C386.416 469.848 387 471.741 378.922 474.365C374.045 475.937 370.978 475.441 369.191 474.365C373.788 473.886 383.945 470.981 384.961 469.976C386.182 468.755 387.707 465.4 388.741 465.342C389.459 465.295 393.11 463.097 395.3 461.736L395.668 463.208Z" fill="black"/>
<path d="M470.906 449.615C469.807 452.174 470.906 457.417 470.906 457.417C470.906 457.417 454.551 458.27 450.556 455.587C446.56 452.905 443.733 437.54 443.733 437.54C443.733 437.54 444.317 419.499 443.733 418.646C443.149 417.792 440.93 413.771 441.66 412.918C442.39 412.065 441.076 407.553 440.077 405.601C439.078 403.649 439.493 398.044 439.493 398.044L437.051 383.165L433.278 365.492L430.071 353.663C430.071 353.663 426.783 344.031 425.667 340.01C424.552 335.989 423.372 339.642 423.372 339.642C423.255 343.546 414.236 361.102 414.236 361.102C414.236 361.102 412.893 371.71 411.433 375.485C409.972 379.261 408.384 392.434 408.384 392.434C408.384 392.434 406.047 419.253 404.12 423.765C402.192 428.277 400.866 434.98 400.866 434.98C400.866 434.98 401.357 444.249 400.136 444.98C398.916 445.711 399.114 451.321 399.114 451.321C399.114 451.321 399.844 456.68 397.041 457.539C394.237 458.399 394.704 460.222 394.704 460.222C394.704 460.222 379.109 462.782 376.55 455.95C373.992 449.118 377.526 447.3 377.719 446.809C377.911 446.318 379.856 445.471 378.151 443.513C376.445 441.555 380.341 436.202 380.341 436.202C380.341 436.202 380.955 428.645 382.047 428.4C383.139 428.154 382.783 417.184 382.783 417.184L383.998 405.724C383.998 405.724 385.586 380.12 385.218 379.144C384.85 378.168 385.096 373.3 386.317 370.962C387.537 368.624 388.507 347.304 388.507 347.304C388.507 347.304 388.262 336.825 389.237 334.873C389.821 333.769 390.066 329.52 390.207 326.054C390.312 323.407 390.335 321.215 390.335 321.215L403.98 316.095L421.503 310.491L436.245 317.562L457.816 321.706L458.085 325.429L462.202 382.3L464.539 403.754C464.539 403.754 465.514 413.871 465.637 415.7C465.76 417.529 466.975 429.481 466.975 429.481C466.975 429.481 469.533 435.208 467.95 437.16C466.367 439.112 466.975 440.667 466.975 440.667C466.975 440.667 472.004 447.055 470.906 449.615Z" fill="#232323"/>
<path opacity="0.1" d="M435.538 183.073C434.195 185.002 434.09 187.497 434.54 189.969C431.47 192.136 427.774 193.234 424.02 193.093C420.266 192.953 416.662 191.582 413.763 189.192C413.395 186.714 412.969 184.896 412.969 184.896C412.969 184.896 439.557 177.311 435.538 183.073Z" fill="black"/>
<path d="M441.753 175.616C441.753 179.003 440.75 182.313 438.869 185.129C436.988 187.945 434.316 190.14 431.188 191.436C428.061 192.732 424.62 193.071 421.3 192.411C417.981 191.75 414.931 190.119 412.538 187.724C410.144 185.329 408.514 182.278 407.854 178.956C407.194 175.635 407.533 172.192 408.828 169.063C410.123 165.934 412.317 163.259 415.131 161.378C417.946 159.496 421.254 158.492 424.639 158.492C426.89 158.481 429.12 158.917 431.201 159.773C433.282 160.63 435.173 161.891 436.765 163.483C438.356 165.075 439.616 166.967 440.473 169.05C441.329 171.132 441.764 173.364 441.753 175.616Z" fill="#F9B293"/>
<path opacity="0.1" d="M445.316 204.072L439.709 303.98L409.248 297.581L403.214 257.53L409.19 203.762L413.687 204.34L421.619 205.352L429.475 205.837L437.992 204.89L445.316 204.072Z" fill="black"/>
<path d="M445.316 204.802L439.709 304.711L409.248 298.311L403.214 258.26L409.19 204.498L413.687 205.071L421.619 206.082L429.475 206.567L437.992 205.62L445.316 204.802Z" fill="white"/>
<path d="M420.276 207.485L431.245 207.853L428.161 212.172C428.161 212.172 428.377 220.897 429.843 223.399C431.31 225.9 430.877 264.543 430.877 264.543L427.957 270.089L422.963 263.871L423.027 212.85L420.276 207.485Z" fill="#3F3D56"/>
<path opacity="0.1" d="M420.276 207.485L431.245 207.853L428.161 212.172C428.161 212.172 428.377 220.897 429.843 223.399C431.31 225.9 430.877 264.543 430.877 264.543L427.957 270.089L422.963 263.871L423.027 212.85L420.276 207.485Z" fill="black"/>
<path opacity="0.1" d="M437.454 196.147L427.221 207.485L433.068 213.58L442.758 204.13L437.454 196.147Z" fill="black"/>
<path d="M437.454 195.416L427.221 206.754L433.068 212.85L442.758 203.4L437.454 195.416Z" fill="white"/>
<path opacity="0.1" d="M422.899 206.935L412.537 196.573L411.561 201.997L416.316 213.884L422.899 206.935Z" fill="black"/>
<path d="M423.261 206.205L412.905 195.843L411.929 201.266L416.684 213.154L423.261 206.205Z" fill="white"/>
<path opacity="0.1" d="M458.137 325.446C453.164 327.817 447.837 329.359 442.367 330.011C432.314 331.291 425.737 318.492 425.737 318.492L421.9 323.489C420.679 328.795 402.099 330.134 394.546 328.123C392.979 327.736 391.506 327.038 390.212 326.072C390.318 323.424 390.341 321.233 390.341 321.233L403.985 316.113L421.508 310.508L436.251 317.58L457.822 321.724L458.137 325.446Z" fill="black"/>
<path opacity="0.1" d="M445.316 204.808L439.715 304.711L409.248 298.311L403.203 258.266L409.172 204.498L413.67 205.083C413.555 207.041 413.335 208.992 413.01 210.927C412.28 214.346 416.789 238.606 416.789 238.606C416.789 238.606 425.358 265.811 429.213 261.889C433.068 257.968 438.558 237.262 438.558 237.262C442.279 229.582 438.622 208.04 438.348 207.607C438.157 206.97 438.039 206.314 437.997 205.65L445.316 204.808Z" fill="black"/>
<path opacity="0.1" d="M458.476 282.117L458.733 291.906L455.918 294.46L454.019 270.761H458.225L458.476 282.117Z" fill="black"/>
<path opacity="0.1" d="M392.321 264.058C392.278 264.845 392.167 265.627 391.988 266.395C391.988 266.179 391.988 266.056 391.941 266.039C391.766 265.992 391.976 265.098 392.321 264.058Z" fill="black"/>
<path opacity="0.1" d="M397.718 270.761L395.796 294.442C395.796 294.442 392.917 291.83 389.19 288.428L389.634 284.232C389.634 284.232 391.205 273.923 391.778 268.838C392.037 269.516 392.375 270.161 392.782 270.761H397.718Z" fill="black"/>
<path d="M414.242 196.205C414.242 196.205 412.42 193.523 409.92 198.701C409.92 198.701 403.401 202.482 401.158 202.909C398.916 203.335 390.937 206.141 390.937 206.141C389.732 207.012 388.282 207.481 386.795 207.479C384.296 207.479 382.222 212.967 382.526 215.953C382.829 218.94 382.345 221.137 380.032 221.26C377.719 221.383 378.992 226.192 378.992 226.192L394.406 243.871C394.406 243.871 395.382 260.148 394.897 260.639C394.412 261.13 392.642 265.899 393.069 266.062C393.495 266.226 390.732 284.226 390.732 284.226L387.017 319.158C387.017 319.158 387.017 325.002 394.576 327.018C402.134 329.035 420.726 327.702 421.923 322.396L425.761 317.393C425.761 317.393 432.338 330.198 442.39 328.918C452.442 327.638 458.844 323.979 458.844 323.979L457.746 282.117L457.016 251.942L472.71 226.14C472.71 226.14 468.505 218.092 468.873 214.451C469.241 210.81 469.965 208.052 461.011 206.772C461.011 206.772 453.459 205.644 449.008 202.564C446.363 200.726 443.472 199.27 440.422 198.239C440.422 198.239 437.91 193.564 436.163 195.165C436.163 195.165 437.916 201.775 437.77 202.763C437.624 203.75 438.044 208.215 438.319 208.677C438.593 209.139 442.25 230.652 438.529 238.331C438.529 238.331 433.068 259.037 429.183 262.959C425.299 266.88 416.76 239.675 416.76 239.675C416.76 239.675 412.25 215.41 412.981 211.997C413.711 208.583 414.242 196.205 414.242 196.205Z" fill="#232323"/>
<path d="M427.279 276.126C428.76 276.126 429.96 274.925 429.96 273.444C429.96 271.962 428.76 270.761 427.279 270.761C425.799 270.761 424.598 271.962 424.598 273.444C424.598 274.925 425.799 276.126 427.279 276.126Z" fill="black"/>
<path d="M427.279 288.773C428.76 288.773 429.96 287.572 429.96 286.091C429.96 284.609 428.76 283.408 427.279 283.408C425.799 283.408 424.598 284.609 424.598 286.091C424.598 287.572 425.799 288.773 427.279 288.773Z" fill="black"/>
<path opacity="0.1" d="M427.279 276.126C428.76 276.126 429.96 274.925 429.96 273.444C429.96 271.962 428.76 270.761 427.279 270.761C425.799 270.761 424.598 271.962 424.598 273.444C424.598 274.925 425.799 276.126 427.279 276.126Z" fill="black"/>
<path opacity="0.1" d="M427.279 288.773C428.76 288.773 429.96 287.572 429.96 286.091C429.96 284.609 428.76 283.408 427.279 283.408C425.799 283.408 424.598 284.609 424.598 286.091C424.598 287.572 425.799 288.773 427.279 288.773Z" fill="black"/>
<path opacity="0.1" d="M451.373 445.956C451.373 445.956 462.378 446.809 463.47 447.663C464.562 448.516 451.373 445.956 451.373 445.956Z" fill="black" stroke="#6C63FF" stroke-miterlimit="10"/>
<path opacity="0.1" d="M385.855 437.301C385.855 437.301 388.191 440.223 387.198 441.567C386.206 442.911 385.855 437.301 385.855 437.301Z" fill="black" stroke="#6C63FF" stroke-miterlimit="10"/>
<path opacity="0.1" d="M388.659 447.838C388.659 447.838 392.923 445.033 394.628 446.897C396.334 448.761 388.659 447.838 388.659 447.838Z" fill="black" stroke="#6C63FF" stroke-miterlimit="10"/>
<path opacity="0.1" d="M441.753 175.616C441.757 177.077 441.572 178.532 441.204 179.946C440.844 179.782 440.542 179.511 440.34 179.171C440.137 178.83 440.044 178.436 440.071 178.041C440.147 177.346 440.608 176.709 440.509 176.019C440.363 174.955 439.078 174.523 438.401 173.681C437.565 172.664 437.746 171.186 437.816 169.871C437.887 168.556 437.554 166.949 436.321 166.499C435.953 166.364 435.55 166.352 435.194 166.2C434.224 165.791 433.926 164.587 433.278 163.758C431.981 162.086 429.405 162.121 427.437 162.916C426.58 163.327 425.703 163.694 424.809 164.015C424.361 164.173 423.885 164.236 423.412 164.201C422.938 164.166 422.477 164.033 422.057 163.81C421.672 163.565 421.362 163.226 420.965 162.98C419.645 162.185 417.916 162.98 416.771 164.003C415.627 165.026 414.71 166.399 413.267 167.025C412.618 167.317 411.818 167.492 411.514 168.123C411.364 168.467 411.3 168.842 411.328 169.216C411.328 171.49 411.596 173.798 411.123 176.025C410.819 177.457 409.815 179.081 408.36 178.906C408.179 178.879 408.001 178.834 407.829 178.772C407.391 176.431 407.446 174.025 407.99 171.706C408.534 169.388 409.556 167.209 410.989 165.308C412.423 163.407 414.237 161.826 416.315 160.666C418.394 159.506 420.692 158.793 423.061 158.572C425.431 158.351 427.821 158.626 430.078 159.382C432.335 160.137 434.41 161.355 436.17 162.957C437.93 164.56 439.337 166.513 440.3 168.69C441.264 170.868 441.762 173.223 441.765 175.604L441.753 175.616Z" fill="black"/>
<path d="M407.064 177.801C407.502 177.901 407.917 178.129 408.366 178.187C409.821 178.363 410.825 176.738 411.129 175.306C411.602 173.079 411.357 170.771 411.339 168.497C411.307 168.124 411.369 167.748 411.52 167.404C411.853 166.773 412.654 166.598 413.273 166.306C414.686 165.675 415.609 164.33 416.777 163.284C417.945 162.238 419.645 161.467 420.965 162.261C421.357 162.495 421.672 162.846 422.058 163.091C422.479 163.311 422.941 163.442 423.415 163.477C423.889 163.512 424.365 163.451 424.814 163.296C425.72 163.027 426.567 162.554 427.437 162.197C429.388 161.402 431.97 161.373 433.278 163.033C433.926 163.869 434.224 165.067 435.194 165.476C435.55 165.628 435.953 165.645 436.321 165.78C437.554 166.241 437.869 167.837 437.816 169.152C437.764 170.467 437.589 171.945 438.401 172.962C439.078 173.792 440.363 174.225 440.509 175.3C440.603 175.99 440.147 176.633 440.071 177.322C440.054 177.579 440.087 177.836 440.17 178.079C440.253 178.322 440.383 178.547 440.553 178.739C440.723 178.931 440.93 179.088 441.161 179.2C441.392 179.312 441.643 179.377 441.899 179.391C443.418 179.391 444.358 177.69 445.778 177.147C446.362 176.919 447.069 176.884 447.53 176.422C447.701 176.2 447.823 175.944 447.885 175.67C447.948 175.397 447.95 175.113 447.892 174.838C447.606 172.6 445.813 170.654 446.005 168.41C446.187 166.259 448.178 164.383 447.758 162.267C447.544 161.487 447.143 160.771 446.59 160.181C445.963 159.332 445.147 158.641 444.206 158.165C443.395 157.814 442.454 157.732 441.712 157.305C439.504 156.096 439.51 152.94 438.208 150.789C437.649 149.9 436.856 149.183 435.916 148.714C434.977 148.246 433.927 148.046 432.881 148.136C431.239 148.299 429.75 149.17 428.126 149.462C425.901 149.86 423.646 149.129 421.538 148.294C419.429 147.458 417.297 146.54 415.037 146.54C412.776 146.54 410.329 147.709 409.64 149.848C409.277 151.017 409.459 152.268 409.178 153.442C408.687 155.529 406.842 157.013 404.984 158.048C403.705 158.761 402.169 159.579 402.017 161.034C401.918 161.958 402.426 162.787 402.747 163.682C403.294 165.194 403.281 166.853 402.712 168.357C402.286 169.462 401.573 170.432 401.141 171.531C400.834 172.276 400.689 173.079 400.715 173.885C400.741 174.691 400.938 175.482 401.293 176.206C401.565 176.734 401.942 177.201 402.401 177.578C402.86 177.955 403.391 178.234 403.962 178.398C405.113 178.672 405.837 177.533 407.064 177.801Z" fill="#3F3D56"/>
<g opacity="0.1">
<path opacity="0.1" d="M411.129 174.032C410.825 175.464 409.815 177.088 408.36 176.913C407.911 176.855 407.502 176.627 407.058 176.527C405.837 176.259 405.113 177.404 403.962 177.112C403.391 176.948 402.859 176.669 402.399 176.292C401.939 175.915 401.56 175.448 401.287 174.92C400.981 174.325 400.797 173.676 400.744 173.009C400.627 174.044 400.816 175.09 401.287 176.019C401.56 176.547 401.939 177.014 402.399 177.391C402.859 177.768 403.391 178.047 403.962 178.211C405.13 178.479 405.837 177.334 407.058 177.626C407.485 177.775 407.92 177.902 408.36 178.006C409.815 178.187 410.825 176.562 411.129 175.131C411.369 173.866 411.463 172.577 411.409 171.291C411.404 172.211 411.31 173.129 411.129 174.032Z" fill="black"/>
<path opacity="0.1" d="M403.127 165.23C403.201 164.273 403.07 163.31 402.741 162.408C402.477 161.807 402.253 161.19 402.07 160.561C402.045 160.659 402.025 160.758 402.011 160.859C401.912 161.776 402.426 162.612 402.741 163.506C402.945 164.061 403.075 164.641 403.127 165.23Z" fill="black"/>
<path opacity="0.1" d="M447.752 162.15C447.477 163.81 446.134 165.371 446 167.118C445.967 167.417 445.967 167.719 446 168.018C446.292 165.978 448.097 164.173 447.752 162.15Z" fill="black"/>
<path opacity="0.1" d="M447.851 174.482C447.802 174.726 447.687 174.953 447.518 175.136C447.086 175.598 446.35 175.633 445.766 175.861C444.347 176.405 443.43 178.123 441.888 178.105C441.493 178.083 441.114 177.941 440.801 177.699C440.488 177.457 440.256 177.126 440.135 176.749C440.1 176.876 440.072 177.005 440.053 177.135C440.037 177.391 440.071 177.648 440.154 177.89C440.237 178.133 440.368 178.356 440.538 178.548C440.708 178.74 440.914 178.896 441.145 179.008C441.375 179.119 441.626 179.184 441.882 179.198C443.406 179.198 444.341 177.498 445.76 176.96C446.344 176.732 447.057 176.697 447.512 176.235C447.684 176.013 447.805 175.757 447.868 175.483C447.93 175.21 447.933 174.926 447.875 174.651C447.869 174.581 447.857 174.535 447.851 174.482Z" fill="black"/>
<path opacity="0.1" d="M440.527 173.997C440.381 172.933 439.096 172.501 438.418 171.659C438.003 171.106 437.777 170.434 437.775 169.742C437.729 170.829 437.746 171.94 438.418 172.758C439.09 173.576 440.112 173.927 440.439 174.768C440.522 174.52 440.552 174.257 440.527 173.997Z" fill="black"/>
<path opacity="0.1" d="M437.811 167.878C437.857 166.563 437.542 164.956 436.309 164.506C435.947 164.371 435.544 164.354 435.188 164.208C434.218 163.798 433.915 162.595 433.272 161.765C431.97 160.099 429.394 160.128 427.431 160.923C426.555 161.28 425.72 161.753 424.809 162.022C424.361 162.18 423.885 162.243 423.412 162.208C422.938 162.173 422.477 162.04 422.057 161.817C421.672 161.572 421.357 161.233 420.965 160.987C419.639 160.193 417.91 160.987 416.771 162.01C415.632 163.033 414.71 164.4 413.267 165.032C412.613 165.324 411.818 165.499 411.479 166.13C411.331 166.474 411.269 166.85 411.298 167.223C411.298 167.451 411.298 167.679 411.298 167.907C411.306 167.672 411.364 167.441 411.468 167.229C411.807 166.598 412.601 166.423 413.255 166.13C414.669 165.499 415.592 164.155 416.76 163.109C417.928 162.063 419.628 161.291 420.954 162.086C421.345 162.32 421.66 162.671 422.046 162.91C422.465 163.134 422.926 163.268 423.4 163.303C423.873 163.338 424.349 163.274 424.797 163.115C425.69 162.797 426.565 162.432 427.419 162.022C429.376 161.227 431.952 161.192 433.26 162.858C433.903 163.687 434.207 164.891 435.176 165.3C435.533 165.452 435.936 165.47 436.298 165.604C437.297 165.978 437.694 167.101 437.781 168.211L437.811 167.878Z" fill="black"/>
</g>
<g opacity="0.1">
<path opacity="0.1" d="M409.044 173.997C409.077 173.027 409.424 172.094 410.033 171.338C410.642 170.583 411.48 170.045 412.42 169.806C415.024 169.169 417.757 169.293 420.294 170.163C425.837 171.998 419.593 178.602 419.593 178.602C419.593 178.602 415.44 182.693 411.567 179.835C410.423 178.97 409.622 177.728 409.307 176.329C409.117 175.566 409.029 174.782 409.044 173.997Z" fill="black"/>
<path opacity="0.1" d="M439.516 173.997C439.482 173.026 439.134 172.092 438.524 171.337C437.914 170.581 437.076 170.044 436.134 169.806C433.531 169.171 430.801 169.294 428.266 170.163C422.723 171.998 428.967 178.602 428.967 178.602C428.967 178.602 433.114 182.693 436.993 179.835C438.137 178.97 438.937 177.728 439.253 176.329C439.443 175.566 439.531 174.782 439.516 173.997Z" fill="black"/>
<path opacity="0.1" d="M419.248 169.625V169.9H429.37V169.573L419.248 169.625Z" fill="black"/>
<path opacity="0.1" d="M422.478 172.553H422.799V171.624C422.799 171.624 423.827 170.823 425.533 171.624V172.454H426.117V171.91H425.831C425.831 171.91 425.948 170.782 424.043 170.964C424.043 170.964 422.513 170.817 422.548 171.788H422.198L422.478 172.553Z" fill="black"/>
</g>
<path d="M409.044 173.617C409.077 172.647 409.424 171.714 410.033 170.958C410.642 170.203 411.48 169.665 412.42 169.427C415.025 168.794 417.756 168.917 420.294 169.783C425.837 171.624 419.593 178.222 419.593 178.222C419.593 178.222 415.44 182.313 411.567 179.455C410.421 178.593 409.62 177.349 409.307 175.949C409.116 175.187 409.028 174.402 409.044 173.617Z" fill="#232323"/>
<path d="M439.516 173.617C439.482 172.646 439.134 171.713 438.524 170.957C437.914 170.201 437.076 169.664 436.134 169.427C433.531 168.794 430.802 168.917 428.266 169.783C422.723 171.624 428.967 178.222 428.967 178.222C428.967 178.222 433.114 182.313 436.993 179.455C438.139 178.593 438.94 177.349 439.253 175.949C439.443 175.187 439.532 174.403 439.516 173.617Z" fill="#232323"/>
<path d="M419.248 169.257V169.538H429.37V169.204L419.248 169.257Z" fill="#232323"/>
<path d="M422.478 172.185H422.799V171.256C422.799 171.256 423.827 170.461 425.533 171.256V172.092H426.117V171.542H425.831C425.831 171.542 425.948 170.42 424.043 170.595C424.043 170.595 422.513 170.455 422.548 171.419H422.198L422.478 172.185Z" fill="#232323"/>
</g>
<defs>
<linearGradient id="paint0_linear" x1="272.727" y1="215.887" x2="366.463" y2="215.887" gradientUnits="userSpaceOnUse">
<stop stop-color="#808080" stop-opacity="0.25"/>
<stop offset="0.53514" stop-color="#808080" stop-opacity="0.12"/>
<stop offset="1" stop-color="#808080" stop-opacity="0.1"/>
</linearGradient>
<linearGradient id="paint1_linear" x1="107381" y1="282532" x2="107381" y2="95727.9" gradientUnits="userSpaceOnUse">
<stop stop-color="#808080" stop-opacity="0.25"/>
<stop offset="0.54" stop-color="#808080" stop-opacity="0.12"/>
<stop offset="1" stop-color="#808080" stop-opacity="0.1"/>
</linearGradient>
<clipPath id="clip0">
<rect width="573" height="488" fill="white"/>
</clipPath>
</defs>
</svg>
